<?xml version="1.0" standalone="no"?>
<!DOCTYPE svg PUBLIC "-//W3C//DTD SVG 20010904//EN"
 "http://www.w3.org/TR/2001/REC-SVG-20010904/DTD/svg10.dtd">
<svg version="1.0" xmlns="http://www.w3.org/2000/svg"
 width="64.000000pt" height="64.000000pt" viewBox="0 0 64.000000 64.000000"
 preserveAspectRatio="xMidYMid meet">

<g transform="translate(0.000000,64.000000) scale(0.100000,-0.100000)"
fill="#000000" stroke="none">
<path d="M285 450 l-130 -130 130 -130 c102 -103 135 -130 157 -130 15 0 30 5
34 11 4 6 -44 62 -112 130 l-119 119 119 119 c68 68 116 124 112 130 -4 6 -19
11 -34 11 -22 0 -55 -27 -157 -130z m65 -4 c-63 -63 -115 -120 -115 -126 0 -6
52 -63 115 -126 99 -98 112 -114 90 -114 -19 0 -55 30 -145 120 l-120 120 120
120 c90 90 126 120 145 120 22 0 9 -16 -90 -114z"/>
</g>
</svg>
