<?xml version="1.0" standalone="no"?>
<!DOCTYPE svg PUBLIC "-//W3C//DTD SVG 20010904//EN"
 "http://www.w3.org/TR/2001/REC-SVG-20010904/DTD/svg10.dtd">
<svg version="1.0" xmlns="http://www.w3.org/2000/svg"
 width="64.000000pt" height="64.000000pt" viewBox="0 0 64.000000 64.000000"
 preserveAspectRatio="xMidYMid meet">

<g transform="translate(0.000000,64.000000) scale(0.100000,-0.100000)"
fill="#000000" stroke="none">
<path d="M476 513 c-3 -3 -6 -15 -6 -25 0 -16 -9 -18 -65 -18 l-65 0 -37 -50
c-20 -27 -40 -50 -43 -50 -3 1 -21 24 -40 53 l-35 52 -75 0 c-73 0 -75 -1 -75
-25 0 -24 3 -25 61 -28 l62 -3 35 -53 35 -52 -30 -40 c-28 -37 -32 -39 -96
-44 -63 -5 -67 -6 -67 -30 0 -25 1 -25 80 -25 l79 0 31 42 c16 23 33 42 36 42
3 1 19 -19 37 -44 l32 -45 70 0 c63 0 70 -2 70 -19 0 -11 4 -23 10 -26 14 -9
125 58 125 75 0 16 -113 83 -126 74 -5 -3 -9 -14 -9 -25 0 -17 -7 -19 -59 -19
-57 0 -59 1 -85 40 -14 22 -26 42 -26 46 0 3 14 26 32 50 30 43 33 44 85 44
46 0 53 -3 53 -19 0 -11 3 -22 8 -25 13 -8 127 58 127 74 0 16 -118 84 -129
73z m114 -72 c0 -3 -23 -19 -50 -34 l-50 -28 0 61 0 61 50 -27 c28 -15 50 -30
50 -33z m-374 -35 c49 -75 33 -94 -18 -22 l-40 56 -54 0 c-30 0 -54 5 -54 10
0 6 28 10 65 10 l65 0 36 -54z m254 34 c0 -5 -24 -10 -54 -10 l-55 0 -86 -120
-87 -120 -69 0 c-86 0 -91 18 -7 22 l62 3 84 118 83 117 65 0 c36 0 64 -4 64
-10z m-151 -185 c32 -45 33 -45 92 -45 33 0 59 -4 59 -10 0 -6 -30 -10 -70
-10 l-69 0 -31 45 c-17 25 -28 50 -25 55 9 14 8 15 44 -35z m271 -55 c0 -3
-23 -18 -50 -33 l-50 -28 0 61 0 61 50 -28 c27 -15 50 -30 50 -33z"/>
</g>
</svg>
